<?xml version="1.0" encoding="UTF-8"?>
<!-- Generator: visioncortex VTracer 0.6.2 -->
<svg version="1.1" xmlns="http://www.w3.org/2000/svg" width="1280" height="1280">
<path d="M0 0 C15.22243355 7.30529013 28.71644367 20.35096906 41.25 31.4375 C42.12335747 32.20834679 42.99671494 32.97919357 43.89653778 33.77339935 C66.23652008 53.78123515 80.74680533 73.71273105 82.68496704 104.06029701 C83.37352761 116.76889739 83.20394283 129.41644231 82.625 142.125 C82.59377108 142.82845598 82.56254215 143.53191195 82.5303669 144.25668478 C81.70207821 162.56885691 80.19471852 180.79892162 78 199 C78.84577921 198.8949156 78.84577921 198.8949156 79.70864487 198.78770828 C98.0105083 196.552765 116.33582546 195.09294632 134.75 194.25 C135.44866322 194.21712544 136.14732644 194.18425089 136.86716127 194.15038013 C172.04770044 192.54126382 201.36916079 193.6329078 228.86697006 218.34761047 C235.15277165 224.21683011 240.98642803 230.4410025 246.6875 236.875 C247.89275581 238.23208824 247.89275581 238.23208824 249.12236023 239.61659241 C277 271.28416533 277 271.28416533 277 277 C241.85625437 277.02286524 206.71251023 277.04049765 171.56875873 277.05106533 C167.42417573 277.05231611 163.27959274 277.05361042 159.13500977 277.05493164 C158.3098624 277.05519395 157.48471503 277.05545626 156.6345632 277.05572652 C143.25599326 277.06008345 129.87742759 277.06797112 116.49886019 277.0771528 C102.7816351 277.08648871 89.06441226 277.09205548 75.34718412 277.09408849 C66.87597574 277.09546385 58.40477945 277.09981513 49.93357479 277.10791647 C44.13259484 277.11318316 38.33162117 277.11480447 32.530639 277.11350138 C29.17868602 277.11285788 25.8267714 277.11441527 22.47481918 277.11920547 C18.84928945 277.12413523 15.22381266 277.12300095 11.59828186 277.12025452 C10.52729297 277.12316736 9.45630408 277.1260802 8.35286099 277.12908131 C7.38945276 277.12709026 6.42604453 277.12509921 5.43344212 277.12304783 C4.17637796 277.12361741 4.17637796 277.12361741 2.89391857 277.1241985 C1 277 1 277 0 276 C-0.09674092 274.5247855 -0.12371769 273.04494085 -0.12304783 271.56655788 C-0.1260344 270.12144554 -0.1260344 270.12144554 -0.12908131 268.64713901 C-0.12616847 267.57615012 -0.12325563 266.50516124 -0.12025452 265.40171814 C-0.12110894 264.27380326 -0.12196337 263.14588839 -0.12284368 261.98379427 C-0.12450177 258.17269281 -0.11897175 254.36163457 -0.11352539 250.55053711 C-0.112688 247.83121207 -0.11335704 245.11188791 -0.1139679 242.39256287 C-0.11449333 236.52176903 -0.11134452 230.65098628 -0.10573006 224.78019524 C-0.09761766 216.29192179 -0.0950001 207.80365373 -0.09374207 199.31537683 C-0.09155114 185.54512773 -0.08488994 171.77488455 -0.07543945 158.00463867 C-0.06626639 144.62475616 -0.05918504 131.24487525 -0.05493164 117.86499023 C-0.05466892 117.04084218 -0.05440619 116.21669412 -0.05413551 115.36757188 C-0.05283051 111.23323886 -0.05156679 107.09890583 -0.05032361 102.96457279 C-0.03994972 68.64304427 -0.02233029 34.32152277 0 0 Z " fill="#06030B" transform="translate(170,505)"/>
<path d="M0 0 C35.14374563 -0.02286524 70.28748977 -0.04049765 105.43124127 -0.05106533 C109.57582427 -0.05231611 113.72040726 -0.05361042 117.86499023 -0.05493164 C118.6901376 -0.05519395 119.51528497 -0.05545626 120.3654368 -0.05572652 C133.74400674 -0.06008345 147.12257241 -0.06797112 160.50113981 -0.0771528 C174.2183649 -0.08648871 187.93558774 -0.09205548 201.65281588 -0.09408849 C210.12402426 -0.09546385 218.59522055 -0.09981513 227.06642521 -0.10791647 C232.86740516 -0.11318316 238.66837883 -0.11480447 244.469361 -0.11350138 C247.82131398 -0.11285788 251.1732286 -0.11441527 254.52518082 -0.11920547 C258.15071055 -0.12413523 261.77618734 -0.12300095 265.40171814 -0.12025452 C267.00820147 -0.12462378 267.00820147 -0.12462378 268.64713901 -0.12908131 C269.61054724 -0.12709026 270.57395547 -0.12509921 271.56655788 -0.12304783 C272.40460065 -0.12342755 273.24264342 -0.12380727 274.10608143 -0.1241985 C276 0 276 0 277 1 C277.09672647 2.47000046 277.12371776 3.94464556 277.12304783 5.41782475 C277.12503888 6.37774958 277.12702993 7.33767441 277.12908131 8.32668787 C277.12616847 9.39378581 277.12325563 10.46088375 277.12025452 11.56031799 C277.12153615 13.24606498 277.12153615 13.24606498 277.12284368 14.96586746 C277.12450176 18.76314944 277.11897177 22.56038805 277.11352539 26.35766602 C277.112688 29.06713896 277.11335704 31.77661103 277.1139679 34.48608398 C277.11449333 40.33559691 277.11134453 46.18509871 277.10573006 52.03460884 C277.09761764 60.4921132 277.0950001 68.94961216 277.09374207 77.40711998 C277.09155114 91.12745478 277.08488995 104.84778365 277.07543945 118.56811523 C277.06626639 131.89949514 277.05918504 145.23087344 277.05493164 158.56225586 C277.05453756 159.79399745 277.05453756 159.79399745 277.05413551 161.05062271 C277.05283051 165.16997166 277.05156679 169.28932062 277.05032361 173.40866959 C277.03994972 207.605784 277.0223303 241.80289136 277 276 C272.66410313 276 270.14273135 273.54676199 266.7746582 271.06713867 C266.04291476 270.53062022 265.31117132 269.99410177 264.55725384 269.44132519 C254.75743371 262.14621053 245.44193271 254.30032779 236.3125 246.1875 C235.42587551 245.40199642 234.53925102 244.61649284 233.62575912 243.80718613 C210.35971785 222.90517278 195.86082248 202.31646419 194.13120484 170.75034785 C193.56471732 158.74935512 193.75693068 146.80969125 194.3125 134.8125 C194.36004134 133.75807559 194.36004134 133.75807559 194.40854311 132.68234968 C195.24845773 114.38862716 196.77464285 96.17942808 199 78 C198.43614719 78.07005627 197.87229439 78.14011253 197.29135513 78.21229172 C178.9894917 80.447235 160.66417454 81.90705368 142.25 82.75 C141.55133678 82.78287456 140.85267356 82.81574911 140.13283873 82.84961987 C104.95229956 84.45873618 75.63083921 83.3670922 48.13302994 58.65238953 C41.84722835 52.78316989 36.01357197 46.5589975 30.3125 40.125 C29.50899612 39.22027451 28.70549225 38.31554901 27.87763977 37.38340759 C0 5.71583467 0 5.71583467 0 0 Z " fill="#06030B" transform="translate(177,498)"/>
<path d="M0 0 C8.03301513 4.78562603 12.213653 8.9014755 14.5546875 18.0234375 C14.70164062 18.67570313 14.84859375 19.32796875 15 20 C17.84777008 17.27323998 19.82667395 14.29291825 22 11 C27.782164 2.82521642 35.41421047 -0.82896103 45 -3 C48.6997536 -3.28286951 52.30057976 -3.26216364 56 -3 C56 -2.34 56 -1.68 56 -1 C56.99 -1.33 57.98 -1.66 59 -2 C68.05143214 0.02520628 74.94804955 5.18294362 79.9364624 12.99177551 C86.62145085 25.61470255 85.51661734 39.25427995 85.390625 53.11328125 C85.38315296 55.53850333 85.37746459 57.96373149 85.37347412 60.38896179 C85.35829375 66.73311401 85.31907785 73.07689257 85.2746582 79.42089844 C85.2335409 85.91010485 85.21542809 92.39937239 85.1953125 98.88867188 C85.1525758 111.59263744 85.08228856 124.29622901 85 137 C76.09 137 67.18 137 58 137 C56.29805537 133.59611074 56.81889488 129.70730593 56.79467773 125.96044922 C56.78477814 125.02381439 56.77487854 124.08717957 56.76467896 123.12216187 C56.73301078 120.01636307 56.70828552 116.91054896 56.68359375 113.8046875 C56.66302881 111.65519811 56.64203247 109.50571281 56.62062073 107.35623169 C56.5653525 101.69109399 56.51596419 96.02591951 56.46777344 90.36071777 C56.41759306 84.58289302 56.36188894 78.80512187 56.30664062 73.02734375 C56.19900096 61.68494159 56.09756891 50.34249295 56 39 C55.67 39 55.34 39 55 39 C54.88785156 38.11248047 54.88785156 38.11248047 54.7734375 37.20703125 C54.06052709 32.92257947 53.47857681 29.8735733 50.0625 27 C45.44279126 23.98304736 41.42437248 23.43388902 36 24 C31.27018086 25.72820315 28.66398869 27.73761809 26 32 C21.7520198 41.49370665 20.87228875 50.54293854 20.79467773 60.82446289 C20.78477814 61.65483063 20.77487854 62.48519836 20.76467896 63.34072876 C20.73340607 66.0513435 20.70844374 68.76197569 20.68359375 71.47265625 C20.66299457 73.36551842 20.64199738 75.2583763 20.62062073 77.15122986 C20.5657059 82.10770162 20.51616308 87.06421277 20.46777344 92.02075195 C20.41733356 97.08873963 20.36176545 102.15667087 20.30664062 107.22460938 C20.19943378 117.14969293 20.09838181 127.07482504 20 137 C10.76 137 1.52 137 -8 137 C-9.32102685 133.03691946 -9.1308172 129.25294975 -9.11352539 125.12231445 C-9.11367142 124.21479431 -9.11381744 123.30727417 -9.1139679 122.37225342 C-9.11327061 119.36923848 -9.10548676 116.36628537 -9.09765625 113.36328125 C-9.09579142 111.28248631 -9.09436782 109.20169092 -9.09336853 107.12089539 C-9.08954849 101.6414977 -9.07972255 96.16212648 -9.06866455 90.68273926 C-9.05843943 85.09253294 -9.05386855 79.50232235 -9.04882812 73.91210938 C-9.03809985 62.94139462 -9.02102955 51.97069951 -9 41 C-9.33 41 -9.66 41 -10 41 C-10.12117187 40.32453125 -10.24234375 39.6490625 -10.3671875 38.953125 C-10.53476562 38.06109375 -10.70234375 37.1690625 -10.875 36.25 C-11.03742187 35.36828125 -11.19984375 34.4865625 -11.3671875 33.578125 C-12.34937659 29.5766139 -13.15249361 27.56500426 -16.625 25.25 C-22.1626868 23.19900489 -26.75914147 23.21796864 -32.1875 25.375 C-37.201421 28.17255121 -39.23648299 32.70944896 -41 38 C-42.57503016 44.47056917 -43.30081384 50.65775881 -43.31884766 57.30517578 C-43.32889328 58.17470383 -43.3389389 59.04423187 -43.34928894 59.94010925 C-43.37984285 62.7751711 -43.3970778 65.61013978 -43.4140625 68.4453125 C-43.43279658 70.42643012 -43.45237162 72.40753995 -43.4727478 74.38864136 C-43.52383851 79.57360213 -43.56358697 84.75858871 -43.60089111 89.94366455 C-43.64107616 95.2463609 -43.692102 100.54895205 -43.7421875 105.8515625 C-43.83867343 116.23430805 -43.92216146 126.61709789 -44 137 C-53.57 137 -63.14 137 -73 137 C-74.28481272 134.43037456 -74.12877251 132.60194569 -74.13371277 129.72375488 C-74.13797775 128.60481339 -74.14224274 127.48587189 -74.14663696 126.33302307 C-74.14618378 125.09970749 -74.14573059 123.86639191 -74.14526367 122.59570312 C-74.14862228 121.30139877 -74.1519809 120.00709442 -74.15544128 118.67356873 C-74.16429066 115.11787644 -74.16661976 111.5622082 -74.16725707 108.00650597 C-74.16820531 105.04159492 -74.17188252 102.07668952 -74.17542917 99.11178064 C-74.1835769 92.11960217 -74.18601307 85.12743658 -74.18530273 78.13525391 C-74.1847015 70.91319545 -74.19526165 63.69121158 -74.2110464 56.469172 C-74.22410297 50.27551753 -74.22948744 44.08188749 -74.22884732 37.88821936 C-74.22859183 34.18591536 -74.23147146 30.48367766 -74.24202538 26.78138733 C-74.25346512 22.65563823 -74.24897114 18.53005736 -74.24291992 14.40429688 C-74.24853943 13.17098129 -74.25415894 11.93766571 -74.25994873 10.66697693 C-74.25575424 9.54803543 -74.25155975 8.42909393 -74.24723816 7.27624512 C-74.24778293 6.29989861 -74.24832769 5.32355209 -74.24888897 4.31761932 C-74 2 -74 2 -72 0 C-69.6015625 -0.24291992 -69.6015625 -0.24291992 -66.625 -0.23046875 C-65.55765625 -0.22853516 -64.4903125 -0.22660156 -63.390625 -0.22460938 C-62.27171875 -0.21236328 -61.1528125 -0.20011719 -60 -0.1875 C-58.32164062 -0.1865332 -58.32164062 -0.1865332 -56.609375 -0.18554688 C-48.28056319 -0.14028159 -48.28056319 -0.14028159 -46 1 C-45.68758545 3.71446979 -45.48663408 6.33909361 -45.375 9.0625 C-45.33632813 9.82111328 -45.29765625 10.57972656 -45.2578125 11.36132812 C-45.16326438 13.24047195 -45.08053244 15.12020336 -45 17 C-44.38125 16.01 -43.7625 15.02 -43.125 14 C-42.42375 13.01 -41.7225 12.02 -41 11 C-40.34 11 -39.68 11 -39 11 C-38.6596875 9.824375 -38.6596875 9.824375 -38.3125 8.625 C-37 6 -37 6 -34.375 4.6875 C-33.59125 4.460625 -32.8075 4.23375 -32 4 C-32 3.34 -32 2.68 -32 2 C-20.59614764 -3.07643666 -11.66318104 -5.1534986 0 0 Z " fill="#F8F8F8" transform="translate(1024,547)"/>
<path d="M0 0 C0 0.66 0 1.32 0 2 C0.5671875 1.80921875 1.134375 1.6184375 1.71875 1.421875 C6.27774764 0.5787727 10.10577947 2.76717247 14 5 C19.04188151 8.90745817 23.4977554 13.4977554 28 18 C27.94779297 17.00419922 27.94779297 17.00419922 27.89453125 15.98828125 C27.86746094 15.10527344 27.84039063 14.22226562 27.8125 13.3125 C27.76029297 12.00732422 27.76029297 12.00732422 27.70703125 10.67578125 C28.1015488 7.07252095 28.37801701 5.59423714 31 3 C34.8841519 2.33615446 38.69790297 2.48745675 42.625 2.625 C43.70007813 2.63917969 44.77515625 2.65335938 45.8828125 2.66796875 C53.81826134 2.81826134 53.81826134 2.81826134 55 4 C55.10080138 5.81235703 55.13076873 7.62867669 55.13371277 9.4438324 C55.14011024 11.21643181 55.14011024 11.21643181 55.14663696 13.02484131 C55.14595718 14.98759003 55.14595718 14.98759003 55.14526367 16.98999023 C55.14825383 18.37291047 55.15165603 19.75582988 55.15544128 21.13874817 C55.16430661 24.90783967 55.16662064 28.67690848 55.16725707 32.4460094 C55.16820535 35.59403031 55.17188326 38.74204591 55.17542917 41.89006478 C55.18358563 49.32506869 55.18601256 56.76006049 55.18530273 64.19506836 C55.18470369 71.85149368 55.19521808 79.50784815 55.2110464 87.16425556 C55.22415749 93.74187565 55.22948504 100.31947271 55.22884732 106.89710575 C55.2285931 110.82324365 55.23140142 114.74931881 55.24202538 118.67544365 C55.25176483 122.37640543 55.2517458 126.07724532 55.24450874 129.77821159 C55.24297745 131.77061433 55.25127138 133.76301719 55.25994873 135.75540161 C55.20497232 151.57679435 51.49543506 165.11480596 40.1875 176.5625 C28.22709598 188.04426524 13.99022739 190.51487951 -2.1159668 190.42163086 C-19.50819507 189.94725466 -33.92291175 183.55495865 -46 171 C-47.84775669 168.72775866 -49.42133145 166.4732474 -51 164 C-49.66198588 160.9350908 -48.29092019 159.14639067 -45.6875 157.0625 C-43.35669555 155.15812131 -41.34575584 153.31601747 -39.25 151.125 C-37 149 -37 149 -34 149 C-32.17578125 150.6796875 -32.17578125 150.6796875 -30.3125 152.875 C-29.68988281 153.59429688 -29.06726563 154.31359375 -28.42578125 155.0546875 C-27 157 -27 157 -27 159 C-24.2114139 160.41010136 -21.40595342 161.76643718 -18.5625 163.0625 C-17.82128906 163.40410156 -17.08007812 163.74570312 -16.31640625 164.09765625 C-8.42684273 167.17099381 1.87173845 167.3426483 10.05859375 165.19921875 C17.31630949 161.98461406 20.82105493 156.669168 24.09375 149.65625 C26.22355035 143.41373173 26.13070822 137.07376117 26.0625 130.5625 C26.05798828 129.73556641 26.05347656 128.90863281 26.04882812 128.05664062 C26.03715811 126.03772854 26.01922718 124.01885426 26 122 C25.39671875 122.77214844 24.7934375 123.54429687 24.171875 124.33984375 C18.72354495 131.01306814 11.60772686 135.74971565 3 137 C-9.23084852 137.78858625 -20.93114055 137.87997696 -31 130 C-31.97259766 129.24203125 -31.97259766 129.24203125 -32.96484375 128.46875 C-43.57242376 119.77725055 -50.56463397 105.29724537 -52.90625 91.85546875 C-53 90 -53 90 -52 88 C-52.66 88 -53.32 88 -54 88 C-54 84.7 -54 81.4 -54 78 C-54.33 78 -54.66 78 -55 78 C-55.46367033 54.06945902 -53.45328438 31.58225977 -36.33203125 13.296875 C-31.11247778 8.15600827 -25.93141379 4.5205141 -19 2 C-17.948125 1.608125 -16.89625 1.21625 -15.8125 0.8125 C-10.52388999 -0.31458082 -5.38588594 -0.15918875 0 0 Z M29 8 C30 12 30 12 30 12 Z M-16 33 C-20.88617645 40.46913613 -23.70303514 47.89764649 -24.7109375 56.76953125 C-25 59 -25 59 -26 60 C-26.95146537 77.78508353 -24.84898154 94.24332843 -14 109 C-8.87829124 114.01664807 -1.79987923 113.90710548 5 114 C11.34867781 113.8941887 15.53002105 111.37709627 20 107 C20 106.34 20 105.68 20 105 C20.99 104.67 21.98 104.34 23 104 C29.49567959 94.26803876 29.30661973 80.9861705 29.625 69.75 C29.68300781 68.04263672 29.68300781 68.04263672 29.7421875 66.30078125 C29.83518848 63.53400221 29.92102861 60.76720883 30 58 C29.34 58 28.68 58 28 58 C28.33 55.69 28.66 53.38 29 51 C28.34 51 27.68 51 27 51 C26.938125 49.88625 26.87625 48.7725 26.8125 47.625 C25.90512874 40.61462477 22.8103452 34.27076836 17.5625 29.5 C6.87529254 21.39877636 -6.8134342 23.83800953 -16 33 Z M-54 59 C-53 62 -53 62 -53 62 Z M29 83 C30 85 30 85 30 85 Z " fill="#F9F9F9" transform="translate(671,544)"/>
<path d="M0 0 C1.55908654 0.36890303 3.12193041 0.72215879 4.6875 1.0625 C5.89986328 1.32740234 5.89986328 1.32740234 7.13671875 1.59765625 C7.75160156 1.73042969 8.36648438 1.86320313 9 2 C9 2.66 9 3.32 9 4 C11.97 4.495 11.97 4.495 15 5 C15 5.66 15 6.32 15 7 C15.57621094 7.09539063 16.15242187 7.19078125 16.74609375 7.2890625 C19.49370832 8.15572775 20.94182079 9.43819471 23.0625 11.375 C23.73410156 11.98085938 24.40570312 12.58671875 25.09765625 13.2109375 C26.03931641 14.09652344 26.03931641 14.09652344 27 15 C27.53238281 15.46921875 28.06476563 15.9384375 28.61328125 16.421875 C30.374251 18.42590818 31.16591847 20.3904502 32.125 22.875 C32.62386719 24.13957031 32.62386719 24.13957031 33.1328125 25.4296875 C34.50794753 29.50553818 35.12535061 33.32943206 35.12025452 37.6254425 C35.12231651 38.97360298 35.12231651 38.97360298 35.12442017 40.34899902 C35.11902725 41.80880188 35.11902725 41.80880188 35.11352539 43.2980957 C35.11367142 44.33270432 35.11381744 45.36731293 35.1139679 46.43327332 C35.11327214 49.84746407 35.10549544 53.26160004 35.09765625 56.67578125 C35.09579088 59.04518097 35.09436754 61.41458108 35.09336853 63.78398132 C35.08955276 70.01629707 35.07973047 76.24858947 35.06866455 82.480896 C35.05843024 88.84207849 35.05386658 95.20326477 35.04882812 101.56445312 C35.03810739 114.042979 35.02104222 126.52148756 35 139 C31.20847666 139.0867982 27.41720704 139.14032207 23.625 139.1875 C22.54476562 139.21263672 21.46453125 139.23777344 20.3515625 139.26367188 C18.8046875 139.27817383 18.8046875 139.27817383 17.2265625 139.29296875 C15.79691162 139.31653442 15.79691162 139.31653442 14.33837891 139.34057617 C13.56671387 139.22818604 12.79504883 139.1157959 12 139 C9.54608431 135.31912647 9.77197241 132.55644412 9.875 128.3125 C9.88402344 127.61060547 9.89304687 126.90871094 9.90234375 126.18554688 C9.92586296 124.45688475 9.96173287 122.72839855 10 121 C9.34 121 8.68 121 8 121 C7.7525 121.53625 7.505 122.0725 7.25 122.625 C2.94411286 130.80618556 -2.94394892 135.69169436 -11 140 C-15.85165901 141.48568174 -20.78471827 141.18420741 -25.8125 141.1875 C-26.78509766 141.19974609 -27.75769531 141.21199219 -28.75976562 141.22460938 C-37.5397932 141.24244288 -44.34101207 140.06059961 -51 134 C-60.92170992 122.91521882 -62.61721272 112.45102609 -62.13183594 98.08447266 C-61.871777 93.97265191 -60.87751601 90.64124317 -59 87 C-58.5978125 86.195625 -58.195625 85.39125 -57.78125 84.5625 C-51.87312046 73.79657507 -43.91687778 67.30295113 -33 62 C-32.03513672 61.46632813 -32.03513672 61.46632813 -31.05078125 60.921875 C-19.99925791 54.88069522 -4.57288539 49.64921465 8 50 C8.12409617 37.43691372 8.12409617 37.43691372 4 26 C-1.81800594 22.04887069 -10.28190484 21.94735579 -17 23 C-27.10664117 26.78511272 -32.01857784 32.77514415 -37 42 C-41.13045831 41.38498691 -44.30785607 39.98863121 -48 38.0625 C-51.61789786 36.18433108 -55.18866537 34.45026887 -59 33 C-59.4282714 25.08388665 -54.66261876 19.52561365 -49.6875 13.75 C-38.05818222 1.47566297 -16.66775219 -5.5559174 0 0 Z M-26.0625 85.5625 C-31.86673778 91.62614505 -34.46736451 97.18473302 -34.42578125 105.54296875 C-33.64369984 110.05608076 -30.94612958 113.58065789 -28 117 C-22.82792593 119.58603703 -13.0933176 118.80140407 -7.6328125 117.38671875 C-2.92888878 114.92637155 0.949523 110.28364855 4 106 C4 105.34 4 104.68 4 104 C4.66 104 5.32 104 6 104 C8.1984364 100.43621889 8.30510469 97.40602194 8.4140625 93.265625 C8.45273437 91.97011719 8.49140625 90.67460938 8.53125 89.33984375 C8.56270267 87.97656716 8.59395007 86.61328582 8.625 85.25 C8.66320469 83.87106972 8.70225787 82.49216266 8.7421875 81.11328125 C8.83648004 77.74232282 8.9220822 74.37137022 9 71 C-3.42031245 70.77762474 -17.23807331 76.98042429 -26.0625 85.5625 Z M-61 96 C-60 98 -60 98 -60 98 Z " fill="#F8F8F8" transform="translate(888,545)"/>
<path d="M0 0 C1.4540625 0.3403125 1.4540625 0.3403125 2.9375 0.6875 C14.2377473 4.0012856 24.21641166 10.20922217 30.47265625 20.3984375 C32.59245396 24.85077248 33.58321811 29.10281283 34 34 C33.15695312 34.27714844 32.31390625 34.55429687 31.4453125 34.83984375 C29.80175781 35.38318359 29.80175781 35.38318359 28.125 35.9375 C26.48917969 36.47697266 26.48917969 36.47697266 24.8203125 37.02734375 C22.09241318 37.89914074 22.09241318 37.89914074 20 39 C17.6670134 39.04022391 15.33293334 39.04320247 13 39 C12.72027344 38.34773437 12.44054687 37.69546875 12.15234375 37.0234375 C8.88306316 29.89619556 5.40743333 25.55167193 -1.375 21.625 C-8.20698845 19.99833608 -14.82385593 20.54079913 -21 24 C-25.23646524 27.79052153 -26.56268447 32.45750102 -27 38 C-26.37628299 41.7695146 -26.37628299 41.7695146 -25 45 C-24.731875 45.763125 -24.46375 46.52625 -24.1875 47.3125 C-22.5337855 49.66251534 -20.66280231 49.96215102 -18 51 C-16.27903078 51.91409736 -14.57110827 52.85305965 -12.875 53.8125 C-9.15973455 55.8665892 -5.437858 57.76702515 -1.5625 59.5 C10.59630119 64.94631037 21.79919451 70.14599273 30 81 C30.50402344 81.6290625 31.00804687 82.258125 31.52734375 82.90625 C37.61419724 91.56023798 37.08248518 103.53395518 35.4140625 113.5 C32.57102145 124.55916884 25.7435614 131.60080873 16.43359375 137.84375 C8.93182272 141.40799434 1.40153919 141.33597794 -6.75 141.3125 C-7.8534375 141.32861328 -8.956875 141.34472656 -10.09375 141.36132812 C-25.24133531 141.37021755 -36.86127438 137.38241185 -47.75 126.75 C-54.84912747 119.35006204 -62 109.73722914 -62 99 C-59.08881787 97.65445055 -56.17024347 96.32575471 -53.25 95 C-52.425 94.6184375 -51.6 94.236875 -50.75 93.84375 C-49.95078125 93.4828125 -49.1515625 93.121875 -48.328125 92.75 C-47.22839355 92.24726562 -47.22839355 92.24726562 -46.10644531 91.734375 C-44 91 -44 91 -40 91 C-39.57589844 92.07378906 -39.15179687 93.14757812 -38.71484375 94.25390625 C-34.27773951 105.4711462 -34.27773951 105.4711462 -26 114 C-25.30003906 114.54140625 -24.60007812 115.0828125 -23.87890625 115.640625 C-19.762054 117.58453895 -16.05951646 117.47558097 -11.5625 117.4375 C-10.72912109 117.45748047 -9.89574219 117.47746094 -9.03710938 117.49804688 C-3.58257797 117.49373499 -0.20095834 116.80549775 4 113 C6.86292183 107.80524908 7.50302344 102.3527956 6.0625 96.625 C4.25834347 90.72945026 -0.53827211 87.67288959 -5.734375 84.90234375 C-7.06835586 84.2381558 -8.40707362 83.58340966 -9.75 82.9375 C-10.8023584 82.41990112 -10.8023584 82.41990112 -11.87597656 81.8918457 C-16.49236878 79.64785459 -21.14910181 77.61964009 -25.984375 75.88671875 C-28.28008259 74.87678537 -30.02070155 73.53055063 -32 72 C-33.03125 71.484375 -34.0625 70.96875 -35.125 70.4375 C-40.57084357 67.41203135 -44.95305391 62.67393773 -49 58 C-49 57.34 -49 56.68 -49 56 C-49.66 56 -50.32 56 -51 56 C-53.01961502 51.70831809 -54.2828809 48.80897523 -54 44 C-54.33 43.67 -54.66 43.34 -55 43 C-55.9293117 30.89733601 -53.8913496 22.33159591 -46 13 C-40.84706257 7.55155361 -36.16810478 4.10414035 -29 2 C-28.37222656 1.72414063 -27.74445312 1.44828125 -27.09765625 1.1640625 C-19.36494652 -2.0715051 -7.95534141 -2.65178047 0 0 Z M-54 32 C-53 34 -53 34 -53 34 Z M7 105 C8 108 8 108 8 108 Z M-13 119 C-13 119.33 -13 119.66 -13 120 C-11.02 120 -9.04 120 -7 120 C-7 119.67 -7 119.34 -7 119 C-8.98 119 -10.96 119 -13 119 Z " fill="#F9F9F9" transform="translate(570,545)"/>
<path d="M0 0 C0 8.58 0 17.16 0 26 C-1.8975 25.71125 -3.795 25.4225 -5.75 25.125 C-13.49105555 24.52498369 -18.66451871 26.67189686 -25 31 C-31.76574217 37.18993433 -34.95380635 46.07259216 -36 55 C-36.11111377 57.7507329 -36.18370029 60.47935323 -36.20532227 63.23022461 C-36.22017166 64.41681671 -36.22017166 64.41681671 -36.23532104 65.62738037 C-36.26668447 68.21900532 -36.29159299 70.81064853 -36.31640625 73.40234375 C-36.33699756 75.20838371 -36.35799458 77.01441909 -36.37937927 78.82044983 C-36.43437526 83.55665355 -36.48388295 88.29289913 -36.53222656 93.0291748 C-36.58260644 97.86909681 -36.63820616 102.70895858 -36.69335938 107.54882812 C-36.80066576 117.03250054 -36.90217099 126.51622542 -37 136 C-40.95092059 136.07409401 -44.90157294 136.12857406 -48.85302734 136.16479492 C-50.85919374 136.18732251 -52.86516526 136.2254357 -54.87109375 136.26367188 C-56.12792969 136.27333984 -57.38476562 136.28300781 -58.6796875 136.29296875 C-60.42354736 136.31653442 -60.42354736 136.31653442 -62.20263672 136.34057617 C-63.1257666 136.22818604 -64.04889648 136.1157959 -65 136 C-67.23708467 132.644373 -67.25091403 131.56122842 -67.25396729 127.64146423 C-67.26242676 125.97361122 -67.26242676 125.97361122 -67.27105713 124.27206421 C-67.26700867 123.05169464 -67.26296021 121.83132507 -67.25878906 120.57397461 C-67.2622937 119.2892778 -67.26579834 118.00458099 -67.26940918 116.68095398 C-67.27853452 113.15627807 -67.27498861 109.6317191 -67.26865101 106.10704112 C-67.26359284 102.42174508 -67.26828185 98.73645915 -67.27142334 95.05116272 C-67.27506306 88.86311034 -67.27026326 82.67510568 -67.26074219 76.48706055 C-67.2498528 69.32688957 -67.25338667 62.16683244 -67.264395 55.00666422 C-67.27346198 48.86393823 -67.27475619 42.72124658 -67.26951766 36.57851607 C-67.26639532 32.90753376 -67.26599591 29.23660503 -67.27259064 25.56562614 C-67.27942437 21.47589208 -67.26996102 17.38635532 -67.25878906 13.29663086 C-67.26283752 12.07423706 -67.26688599 10.85184326 -67.27105713 9.59240723 C-67.26541748 8.48332504 -67.25977783 7.37424286 -67.25396729 6.23155212 C-67.25321323 5.26387877 -67.25245918 4.29620543 -67.25168228 3.29920864 C-67 1 -67 1 -65 -1 C-62.69335938 -1.25878906 -62.69335938 -1.25878906 -59.84375 -1.265625 C-58.31041016 -1.26949219 -58.31041016 -1.26949219 -56.74609375 -1.2734375 C-55.67488281 -1.26570312 -54.60367188 -1.25796875 -53.5 -1.25 C-51.89318359 -1.26160156 -51.89318359 -1.26160156 -50.25390625 -1.2734375 C-49.23167969 -1.27085937 -48.20945312 -1.26828125 -47.15625 -1.265625 C-46.21587891 -1.26336914 -45.27550781 -1.26111328 -44.30664062 -1.25878906 C-42 -1 -42 -1 -40 1 C-39.69940057 3.36509361 -39.50484988 5.74441881 -39.375 8.125 C-39.30023437 9.40632812 -39.22546875 10.68765625 -39.1484375 12.0078125 C-39.07496094 13.48894531 -39.07496094 13.48894531 -39 15 C-38.34 15 -37.68 15 -37 15 C-35.58331361 12.87958287 -35.58331361 12.87958287 -34.1875 10.25 C-26.61072114 -2.61964829 -13.27975465 -5.69132342 0 0 Z " fill="#F8F8F8" transform="translate(822,548)"/>
<path d="M0 0 C3.96 0 7.92 0 12 0 C12 0.33 12 0.66 12 1 C8.04 1 4.08 1 0 1 C0 0.67 0 0.34 0 0 Z " fill="#06030B" transform="translate(856,687)"/>
<path d="M0 0 C3.96 0 7.92 0 12 0 C12 0.33 12 0.66 12 1 C8.04 1 4.08 1 0 1 C0 0.67 0 0.34 0 0 Z " fill="#06030B" transform="translate(557,687)"/>
<path d="M0 0 C1.98 0 3.96 0 6 0 C6 0.33 6 0.66 6 1 C4.02 1 2.04 1 0 1 C0 0.67 0 0.34 0 0 Z " fill="#06030B" transform="translate(809,573)"/>


</svg>
